<svg xmlns="http://www.w3.org/2000/svg" xmlns:xlink="http://www.w3.org/1999/xlink" version="1.1" x="0px" y="0px" viewBox="-3.2 -6.4 70.4 86.4" style="enable-background:new 0 0 64 64;" xml:space="preserve"><g><path d="M51.399,57.16v3.36l-37.79,0.05v-3.41c0-1.12,0.239-2.04,0.75-2.81c0.01-0.02,0.02-0.03,0.04-0.05   c1.149-1.72,3.659-2.7,7.68-3c1-0.08,2.07-0.11,3.28-0.11h14.29c1.409,0,2.699,0.05,3.85,0.16c3.77,0.35,6.12,1.35,7.19,3.06   c0.01,0.02,0.02,0.03,0.04,0.05C51.169,55.21,51.399,56.11,51.399,57.16z"/><path d="M58.939,30.61c-1.24-4.73-4.721-8.42-9.29-9.88c-4.15-1.31-8.511-0.61-11.811,1.88c-0.32-0.86-0.899-2.76-1.43-4.62h4.399   c0.271,0,0.5-0.22,0.5-0.5v-4.94c0-0.27-0.229-0.5-0.5-0.5h-3.97V3.93c0-0.28-0.229-0.5-0.5-0.5h-8.68c-0.271,0-0.5,0.22-0.5,0.5   v8.12h-3.96c-0.28,0-0.5,0.23-0.5,0.5v4.94c0,0.28,0.22,0.5,0.5,0.5h4.39c-0.53,1.86-1.109,3.76-1.43,4.62   c-3.3-2.49-7.66-3.19-11.811-1.88c-4.569,1.46-8.05,5.15-9.29,9.87c-2.56,9.69,10.49,19.74,11.78,20.71   c0.271-0.11,0.561-0.2,0.87-0.29c1.2-0.36,2.62-0.6,4.29-0.72c1.03-0.08,2.13-0.11,3.36-0.11h14.29c1.439,0,2.76,0.05,3.939,0.16   c1,0.09,1.91,0.23,2.73,0.42c0.41,0.09,0.79,0.19,1.149,0.31C49.819,49.25,61.369,39.76,58.939,30.61z M25.449,34.14v8.32h-2.931   l-6.109-7.79c-0.04-0.43-0.12-1.92,0.729-2.91c0.69-0.81,1.82-1.12,3.511-0.9C25.639,31.52,25.469,33.98,25.449,34.14z    M47.589,34.67l-6.109,7.79h-2.94v-8.38c0-0.03-0.25-2.56,4.81-3.22c1.681-0.22,2.82,0.09,3.511,0.9   C47.699,32.74,47.629,34.24,47.589,34.67z"/></g></svg>