<svg xmlns="http://www.w3.org/2000/svg" xmlns:xlink="http://www.w3.org/1999/xlink" version="1.1" x="0px" y="0px" viewBox="0 0 100 125" style="enable-background:new 0 0 100 100;" xml:space="preserve"><path d="M41.6,52.3c0.8-6.6-1-11.4-2.2-13.7c2.6,0.5,6.1,0.8,10.6,0.8s8-0.3,10.6-0.8c-1.2,2.3-3,7.1-2.2,13.7  c0.7,5.4,1.9,10.9,5,15.8c-2,0.6-7.2,2-13.5,2c-6.2,0-11.5-1.4-13.5-2C39.7,63.2,40.9,57.7,41.6,52.3z M75.9,86  c-0.3-1.1-3.3-2.2-5.4-2.6c-5,1.8-13.3,2.2-20.5,2.2s-15.5-0.5-20.5-2.2c-2.1,0.4-5.1,1.5-5.4,2.6c-0.2,0.6-0.1,1.1,0.3,1.5  c1.2,1.5,6,4,25.6,4s24.4-2.5,25.6-4C76,87.1,76,86.6,75.9,86z M50,84.1c20.5,0,23.2-3.6,23.5-4.7c0.4-1.1-0.7-2.7-3-4.3  c-2.6-1.8-4.5-3.8-6.1-5.9c-1.7,0.6-7.3,2.2-14.4,2.2s-12.7-1.7-14.4-2.2c-1.6,2.1-3.5,4.1-6.1,5.9c-2.3,1.6-3.4,3.1-3,4.3  C26.8,80.6,29.5,84.1,50,84.1z M50,37.8c14.2,0,14.4-2.6,14.4-2.7c0-1.6-4.7-2.9-8-3.3c-1.5,0.8-3.2,1.4-5,1.5  c-0.4,0-0.9,0.1-1.3,0.1c-2.2,0-4.4-0.6-6.3-1.6c-3.3,0.4-8.1,1.7-8.1,3.3C35.6,35.2,35.8,37.8,50,37.8z M38.3,21.3  c-0.6-6.5,4.1-12.2,10.6-12.9c0.4,0,0.8,0,1.2,0c6,0,11.1,4.5,11.7,10.6c0.6,6.5-4.1,12.2-10.6,12.9C44.7,32.6,38.9,27.8,38.3,21.3z   M46,12.7c0.1,0.3,0.4,0.5,0.7,0.5c0.1,0,0.2,0,0.3-0.1c0.6-0.3,1.3-0.5,2-0.6c0.4-0.1,0.7-0.4,0.6-0.8c-0.1-0.4-0.4-0.7-0.8-0.7  c-0.9,0.1-1.7,0.3-2.5,0.7C46,11.9,45.8,12.3,46,12.7z M43.5,14.1c0,0.4,0.4,0.7,0.8,0.7c0.4,0,0.7-0.4,0.7-0.8  c0-0.4-0.4-0.7-0.8-0.7C43.8,13.3,43.5,13.6,43.5,14.1z M41,20.9c0.1,0.9,0.3,1.7,0.6,2.5c0.1,0.3,0.4,0.5,0.7,0.5  c0.1,0,0.2,0,0.3-0.1c0.4-0.2,0.6-0.6,0.4-1c-0.3-0.7-0.4-1.4-0.5-2.1c-0.1-1.4,0.1-2.8,0.8-4.1c0.2-0.4,0-0.8-0.3-1  c-0.4-0.2-0.8,0-1,0.3C41.1,17.6,40.8,19.2,41,20.9z"/></svg>