<svg xmlns="http://www.w3.org/2000/svg" version="1.1" viewBox="-5.0 -10.0 110.0 135.0">
 <g>
  <path d="m87.457 93.086c0-3.2461-2.6406-5.8828-5.8828-5.8828h-60.195c-3.2461 0-5.8828 2.6406-5.8828 5.8828-0.40234 3.5742 2.1758 6.9414 5.8828 6.9141h60.195c3.6992 0.027344 6.293-3.3398 5.8828-6.9141z"/>
  <path d="m29.246 72.773c-3.5273 0-6.3984 2.8711-6.3984 6.3984v5.8281h57.258v-5.8281c0-3.5273-2.8711-6.3984-6.3984-6.3984z"/>
  <path d="m68.082 25.582c6.9766 10.695 7.3984 23.492 7.0703 35.785h8.0781c0.91016-13.922-0.22266-37.969-16.578-50.371-5.9102-5.2422-17.445-8.3945-24.59-4.332 11.359 0.34766 18.941 8.8008 26.02 18.918z"/>
  <path d="m23.879 49.324c3.457-4.4258 6.1953-7.1094 10.875-7.3086 2.8867-0.37891 4.9766-0.65625 6.5352-5.5352 0.17969-0.60156 0.90234-0.9375 1.4727-0.68359 2.7188 1.1328 4.2656 2.6016 4.7305 4.4961 0.90234 3.6836-2.6836 7.9688-6.8359 12.926-4.3594 5.207-9.2695 11.07-10.164 17.336h42.156c0.40625-14.934 1.9492-30.953-6.4062-43.75-7.3945-10.727-16.676-20.625-28.965-17.188-0.57812 0.17578-1.1914-0.14453-1.375-0.71875-1.1719-3.6602-3.582-6.8047-6.7656-8.8984 0.74219 3.8984 0.93359 7.6211 0.57031 11.102-1.3203 2.4844-6.2383 3.3711-6.8945 7.375-0.89062 3.9531-2.4883 7.6602-4.75 11.02-2.5938 3.8516-4.4258 8.0977-5.4453 12.621-1.1602 5.1484 6.2695 10.848 11.262 7.207zm4.7773-27.016c0.5625-0.23438 1.207 0.03125 1.4414 0.59375s-0.03125 1.207-0.59375 1.4414l-0.082031 0.035156c-1.7031 0.71094-2.8711 2.3594-2.9766 4.1992-0.007812 0.62891-0.54687 1.1289-1.168 1.0898-0.60938-0.035157-1.0742-0.55469-1.0391-1.1641 0.13281-2.7266 1.8828-5.1758 4.418-6.1953z"/>
 </g></svg>