<svg xmlns="http://www.w3.org/2000/svg" xmlns:xlink="http://www.w3.org/1999/xlink" version="1.1" x="0px" y="0px" viewBox="-3.2 -6.4 70.4 86.4" style="enable-background:new 0 0 64 64;" xml:space="preserve"><g><path d="M43.64,48.177c-0.21-0.04-0.42-0.07-0.64-0.09c-0.17-0.02-0.34-0.04-0.52-0.05c-1.03-0.1-2.171-0.15-3.391-0.15H24.91   c-1.19,0-2.26,0.04-3.24,0.13c-0.03,0-0.8,0.08-1.13,0.13c-13.25-19.24,4.09-34.07,6.69-36.12c-0.43-1.09-1.51-4.35-0.15-6.54   c0.79-1.26,2.23-1.93,4.27-1.99c2.1-0.06,3.51,0.58,4.23,1.9c1.5,2.76-0.69,7.65-3.24,11.31c-3.39,4.89-4.28,14.85-3.13,17.16   c0.12,0.23,0.21,0.28,0.22,0.28c1.57,0.04,3.68,0.09,4.61,0.11c0.19-3.2,1.16-17.19,3.9-19.03c0.38-0.25,0.81-0.31,1.22-0.17   c2.14,0.76,6.439,6.04,8.31,12.61C48.93,32.837,49.42,40.517,43.64,48.177z"/><path d="M50.74,56.247v4.19l-37.48,0.07v-4.26c0-1.38,0.26-2.56,0.77-3.52c0.01-0.02,0.02-0.04,0.03-0.05   c1.16-2.13,3.58-3.29,7.61-3.66c0.98-0.09,2.04-0.13,3.24-0.13h14.18c1.391,0,2.67,0.06,3.8,0.19c3.73,0.42,6.061,1.64,7.12,3.73   c0.01,0.02,0.021,0.04,0.04,0.06C50.51,53.797,50.74,54.937,50.74,56.247z"/></g></svg>