<svg xmlns="http://www.w3.org/2000/svg" xmlns:xlink="http://www.w3.org/1999/xlink" version="1.1" x="0px" y="0px" viewBox="-3.2 -6.4 70.4 86.4" style="enable-background:new 0 0 64 64;" xml:space="preserve"><g><path d="M50.2,53.13v4H13.8v-4c0-1.07,0.229-1.96,0.72-2.71c0.01-0.01,0.021-0.02,0.03-0.04c1.11-1.65,3.53-2.6,7.4-2.88   c0.96-0.08,2-0.11,3.159-0.11h13.78c1.391,0,2.601,0.05,3.7,0.15c3.641,0.34,5.9,1.3,6.92,2.94c0.021,0.02,0.03,0.04,0.05,0.06   C49.99,51.25,50.2,52.12,50.2,53.13z"/><path d="M28.13,12.04c0,2.85-2.32,5.17-5.17,5.17c-2.86,0-5.181-2.32-5.181-5.17s2.32-5.17,5.181-5.17   C25.81,6.87,28.13,9.19,28.13,12.04z"/><path d="M14.74,22.06c0,2.85-2.32,5.17-5.171,5.17c-2.859,0-5.18-2.32-5.18-5.17s2.32-5.18,5.18-5.18   C12.42,16.88,14.74,19.21,14.74,22.06z"/><path d="M46.22,12.04c0,2.85-2.319,5.17-5.18,5.17c-2.85,0-5.17-2.32-5.17-5.17s2.32-5.17,5.17-5.17   C43.9,6.87,46.22,9.19,46.22,12.04z"/><path d="M59.61,22.06c0,2.85-2.32,5.17-5.181,5.17c-2.85,0-5.17-2.32-5.17-5.17s2.32-5.18,5.17-5.18   C57.29,16.88,59.61,19.21,59.61,22.06z"/><path d="M55.66,28.1c0,0.07-8.57,19.34-8.57,19.34c0,0.01-0.01,0.01-0.01,0.02c-0.3-0.1-0.61-0.21-0.94-0.3   c-0.989-0.29-2.14-0.49-3.449-0.61c-1.141-0.11-2.381-0.16-3.801-0.16h-13.78c-1.189,0-2.25,0.03-3.239,0.11   c-1.551,0.12-2.88,0.33-4.011,0.65c-0.33,0.09-0.649,0.2-0.939,0.31c0-0.01-0.01-0.01-0.01-0.02c0,0-8.58-19.28-8.58-19.34   c0.359,0.08,1.199,0.13,1.239,0.13c1.87,0,3.561-0.84,4.69-2.17c0.22-0.25,0.41-0.52,0.58-0.81l5.18,4.79l0.49-12.17   c0-0.06,0.01-0.11,0.03-0.16c0.31,0.14,0.63,0.25,0.97,0.32c0.47,0.12,0.95,0.18,1.45,0.18c0.979,0,1.91-0.23,2.729-0.65   c0.311-0.14,0.601-0.32,0.87-0.51L31.1,28.3h1.8l4.541-11.25c0.27,0.19,0.56,0.37,0.869,0.51c0.82,0.42,1.75,0.65,2.73,0.65   c0.5,0,0.979-0.06,1.45-0.18c0.34-0.07,0.66-0.18,0.97-0.32c0.021,0.05,0.03,0.1,0.03,0.16l0.49,12.17l5.18-4.79   c0.17,0.29,0.359,0.56,0.58,0.81c1.13,1.33,2.819,2.17,4.689,2.17C54.47,28.23,55.3,28.18,55.66,28.1z"/></g></svg>