<svg xmlns="http://www.w3.org/2000/svg" xmlns:xlink="http://www.w3.org/1999/xlink" version="1.1" x="0px" y="0px" viewBox="-3.2 -6.4 70.4 86.4" style="enable-background:new 0 0 64 64;" xml:space="preserve"><g><path d="M47.09,4.19v7.73c0,6.03-3.88,7.29-7.13,7.29H24.05c-3.26,0-7.14-1.26-7.14-7.29V4.19h6.16v5.99c0,0.28,0.22,0.5,0.5,0.5   h4.45c0.279,0,0.5-0.22,0.5-0.5V4.33h6.96v5.85c0,0.28,0.22,0.5,0.5,0.5h4.449c0.28,0,0.5-0.22,0.5-0.5V4.19H47.09z"/><path d="M45.21,47.27c-0.33-0.06-0.67-0.12-1.02-0.16c-0.131-0.02-0.271-0.03-0.41-0.05c-1.261-0.15-2.63-0.22-4.19-0.22H24.41   c-1.32,0-2.479,0.05-3.58,0.15c-0.35,0.03-0.689,0.07-1.02,0.11c-0.351,0.05-0.69,0.1-1.021,0.16l2.91-27.29   c0.32,0.08,0.65,0.13,0.99,0.16c0.43,0.06,0.89,0.08,1.359,0.08h15.91c0.47,0,0.92-0.02,1.35-0.08c0.341-0.03,0.671-0.08,0.99-0.16   L45.21,47.27z"/><path d="M52.1,55.76v4.05H11.9v-4.05c0-1.48,0.28-2.75,0.83-3.79c0.01-0.01,0.02-0.03,0.029-0.05c1.25-2.29,3.841-3.54,8.171-3.93   c1.06-0.1,2.199-0.15,3.479-0.15h15.18c1.5,0,2.87,0.07,4.08,0.21c4,0.45,6.5,1.77,7.65,4.01l0.029,0.06   C51.85,53.12,52.1,54.35,52.1,55.76z"/></g></svg>